<?xml version="1.0" encoding="UTF-8" standalone="no"?>
<!-- Created with Inkscape (http://www.inkscape.org/) -->

<svg
   xmlns:dc="http://purl.org/dc/elements/1.1/"
   xmlns:cc="http://creativecommons.org/ns#"
   xmlns:rdf="http://www.w3.org/1999/02/22-rdf-syntax-ns#"
   xmlns:svg="http://www.w3.org/2000/svg"
   xmlns="http://www.w3.org/2000/svg"
   xmlns:sodipodi="http://sodipodi.sourceforge.net/DTD/sodipodi-0.dtd"
   xmlns:inkscape="http://www.inkscape.org/namespaces/inkscape"
   width="193.00102mm"
   height="139.14433mm"
   viewBox="0 0 193.00102 139.14433"
   version="1.1"
   id="svg8"
   sodipodi:docname="bb-king.svg"
   inkscape:version="0.92.2 (5c3e80d, 2017-08-06)">
  <defs
     id="defs2" />
  <sodipodi:namedview
     id="base"
     pagecolor="#ffffff"
     bordercolor="#666666"
     borderopacity="1.0"
     inkscape:pageopacity="0.0"
     inkscape:pageshadow="2"
     inkscape:zoom="1.4142136"
     inkscape:cx="394.94258"
     inkscape:cy="453.8106"
     inkscape:document-units="mm"
     inkscape:current-layer="g825"
     showgrid="false"
     inkscape:window-width="1920"
     inkscape:window-height="1000"
     inkscape:window-x="-11"
     inkscape:window-y="-11"
     inkscape:window-maximized="1"
     fit-margin-top="0"
     fit-margin-left="0"
     fit-margin-right="0"
     fit-margin-bottom="0" />
  <metadata
     id="metadata5">
    <rdf:RDF>
      <cc:Work
         rdf:about="">
        <dc:format>image/svg+xml</dc:format>
        <dc:type
           rdf:resource="http://purl.org/dc/dcmitype/StillImage" />
        <dc:title></dc:title>
      </cc:Work>
    </rdf:RDF>
  </metadata>
  <g
     inkscape:label="Layer 1"
     inkscape:groupmode="layer"
     id="layer1"
     transform="translate(-6.8979719,-26.124921)">
    <g
       transform="matrix(0.35277777,0,0,-0.35277777,-1.8888471,197.41985)"
       inkscape:label="ink_ext_XXXXXX"
       id="g823">
      <g
         transform="scale(0.1)"
         id="g825">
        <path
           inkscape:connector-curvature="0"
           id="path983"
           style="fill:#ffffff;fill-opacity:1;fill-rule:nonzero;stroke:none"
           d="m 5394.6503,4309.5344 c -9.67,4.95 -18.81,9.8 -27.17,14.3 l -2.14,1.19 -597.34,-263.77 c 0,0 -223.88,-31.61 -266.99,-76.39 -1.78,1.61 -3.65,3.29 -5.52,4.97 l -211.86,-157.42 0.12,-0.12 -14.21,-10.36 -276.91,-205.74 2.55,-2.82 -111.88,-81.49 -1.64,1.85 -362.03,-269 6.79,-7.68 -96.13,-70 -6,6.83 -5.53,-4.11 c 9.9,-4.34 20.25,-9.08 30.77,-14.26 l 1026.6,779.51 c 0,0 129.36,87.12 298.52,65.54 72.06,42.48 507.14,238.33 620,288.97 m -2036.78,-1105.88 -5.45,2.08 c -27.02,10.34 -87.85,-12.91 -141.5,-33.43 -22.5,-8.59 -43.16,-16.47 -60.36,-21.57 40.73,-2.21 113.62,2.8 120.71,-1.72 9.12,-5.8 65.5,-8.29 65.5,-8.29 0,0 62.19,-32.34 79.61,-40.9 17.41,-8.57 84.58,-21.29 89.56,-44.29 4.97,-22.97 -29.85,-16.8 -79.61,0 -49.75,16.83 -164.19,85.19 -164.19,85.19 0,0 -91.96,-5.74 -136.09,-4.14 -8.81,0.32 -15.7,0.95 -19.59,1.94 l -25.44,-18.47 c -5.78,-8 -11.21,-13.09 -16.35,-16.28 l 6.74,-31.33 c 44.79,-8.28 172.31,-13.74 194.88,-27.07 31.83,-18.75 194.1,-99.92 255.12,-123.15 15.7,13.95 32.63,32.12 37.23,45.78 4.28,12.68 -11.32,40.92 -8.82,55.23 l -3.99,0.21 v 0.2 l 4.68,0.11 3.3,0.26 c 5.61,2.67 29.82,14.95 24.01,29.72 -30.44,77.45 -167.96,130.09 -219.95,149.92 m 215.56,-180.07 c -0.61,1.82 -1.28,3.46 -2.11,4.65 l -0.5,-0.38 c 0.86,-1.16 2.07,-2.62 2.61,-4.27 m -207.4,-90.67 v 0 c -1.91,1.4 -3.43,2.71 -4.38,3.91 -13.27,16.58 -37.88,38.09 -57.92,48.04 0.57,-1.51 -4.62,-9.32 -8.88,-15.34 l 0.46,0.38 c 0,0 -46.99,-61.37 -46.71,-76.29 0.28,-14.93 3.58,-34.84 21.82,-43.13 18.27,-8.28 39.81,0 39.81,0 0,0 60.17,78.53 55.8,82.43 m -51.65,-121.81 c -7.45,6.22 -32.33,8.71 -52.24,11.19 -19.9,2.49 -40.54,53.49 -40.54,53.49 0,0 -40.31,21.15 -93.79,37.66 -53.49,16.52 -118.17,41.95 -128.12,41.95 -2.86,0 -5.95,1.69 -8.91,4 -1.67,-3.74 -3.79,-7.56 -5.92,-11.37 -5.37,-9.57 -11.44,-20.42 -9.08,-27.04 3.01,-6.15 44.65,-24.75 81.4,-38.24 l -0.16,-0.45 c 46.15,-17.35 138.69,-63.89 190.14,-91.09 3.32,-1.54 6.8,-3.23 10.67,-5.28 93.96,-49.87 154.81,-28.3 152.33,-17.11 -2.49,11.19 -38.55,19.9 -41.63,19.9 -3.12,0 -46.68,16.17 -54.15,22.39 m 88.73,-210.21 c 9.95,-12.44 82.94,35.66 89.56,43.95 6.62,8.29 -21.55,-38.15 -24.87,-43.95 -3.33,-5.8 -89.56,-45.61 -59.71,-53.9 29.85,-8.28 67.99,39.8 76.28,29.85 8.3,-9.95 -96.18,-64.68 -87.89,-72.97 8.28,-8.29 142.49,-52.24 127.22,174.14 23.38,4.28 36.71,-16.33 44.32,-41.17 23.53,28.52 53.93,88.67 70.16,126.26 l 27.4,-11.86 c -5.34,-12.35 -52.12,-118.78 -90.3,-149.38 0.36,-2.75 0.67,-5.41 0.96,-8 0.4,-3.95 27.54,-65.11 65.69,-37.75 38.14,27.37 9.95,64.16 9.95,64.16 0,0 31.51,85.94 39.8,94.23 2.37,-2.26 4.28,-5.68 5.87,-9.88 -2.02,17.85 -4.52,32.41 -7.05,39.17 -22.35,6.42 -78.54,32.8 -167.44,78.57 -2.06,-26.02 -9.09,-106.17 -18.79,-122.79 -11.6,-19.9 -111.11,-86.25 -101.16,-98.68 m 251.59,-188.37 c 2.63,11.16 5.53,23.77 8.51,36.79 2.83,12.45 5.78,25.31 8.75,37.93 -12.8,1.44 -31.9,2.68 -38.33,-1.61 -9.95,-6.63 8.3,-44.3 18.25,-57.8 2.4,-3.25 3.06,-8.75 2.82,-15.31 m -8.63,-64.96 c -6.59,-0.52 -16.51,1.03 -24.01,5.45 2.33,-24.05 4.11,-47.31 4.95,-67.16 3.31,-78.69 -3.32,-160.1 -33.18,-226.45 -29.85,-66.34 116.1,-590.401 86.24,-676.639 -24.82,-71.719 -65.09,-131.5 -128.3,-159.191 43.97,1.23 90.74,14.492 110.37,48.851 6.03,10.559 12.98,22.488 20.43,35.301 39.09,67.109 98.17,168.539 102.06,207.547 4.83,48.191 -19.75,403.691 -49.3,512.031 -8.71,31.93 -20.74,71.67 -33.47,113.72 -31.39,103.71 -50.37,169.21 -55.79,206.54 m -204.82,17.01 c -52.24,-54.73 14.94,-34.83 14.94,-34.83 0,0 133.87,61.41 141.74,189.39 -5.42,25.64 -12.42,50.13 -21.18,69.48 1.32,-14.58 1.32,-25.03 1.32,-25.03 0,0 8.71,-124.39 -136.82,-199.01 m -199.2,-195.71 -5.21,41.85 c -46.82,33.02 -140.72,94.87 -197.24,105.63 76.56,-67.19 158.04,-145.87 162.85,-157.43 2.18,-5.27 -2.09,-14.28 -9.45,-24.63 1.02,-7.1 2.17,-15.71 3.42,-25.68 27.17,37 45.63,60.26 45.63,60.26 m -173.22,-1237.61103 c -2.91,9.961 -8.15,51.121 -5.7,129.57103 3.1,98.878 -83,246.519 -100.18,255.562 -27.63,-147.512 -62.34,-345.32003 -63.8,-385.13303 z m 35.3,275.40303 c -22.33,198.218 -89.37,451.868 -279.81,569.158 l -0.27,-1.11 c -0.69,8.47 -2.94,17.11 -6.91,25.44 -15.42,32.23 -50.7,47.45 -78.78,34.01 -28.1,-13.43 -38.38,-50.45 -22.95,-82.67 15.41,-32.23 50.69,-47.45 78.77,-34.01 8.42,4.02 15.18,10.18 20.18,17.66 v -0.01 c 149.73,-88.76 239.56,-331.199 289.77,-528.468 m -403.8,627.308 c 91.9,61.79 153.63,127.01 193.61,179 58.01,75.41 93.17,163.49 78.93,211.03 l -0.16,0.4 -0.68,1.73 c -2.89,6.7 -8.1,12.28 -17.61,9.11 -19.9,-6.63 -18.78,-45.49 -18.78,-45.49 -1.76,-61.57 -78.99,-202.07 -244.41,-332.66 -13.23,-10.43 -6.87,-24.88 9.1,-23.12 -60.56,-40.71 -134.19,-78.71 -223.44,-111.64 -5.78,-2.13 -11.43,-5.16 -17,-7.89 5.58,2.26 11.21,4.51 17,6.65 89.25,32.93 162.88,72.17 223.44,112.88 m 192.08,942.89 -10.18,14.24 -93.88,-69.74 12.74,-17.84 c 30.96,25.06 62.11,50.12 91.32,73.34 m -114.72,-92.33 -24.09,-17.23 -13.18,18.44 -89.14,-66.24 17.3,-24.23 c 32.07,26.38 69.94,57.42 109.11,89.26 m -199.66,-168.39 64.26,47.4 -0.24,0.34 0.22,-0.26 -4.48,6.28 -18.47,25.85 -79.2,-58.85 19.19,-26.85 -40.49,-28.91 -18.64,26.09 -74.19,-55.15 21.66,-30.31 -16.19,-11.57 -21.45,30.02 -311.88,-231.75 c 20.91,-4.87 42.07,-10.57 42.07,-10.57 l -141.8,-111.95 -16.85,8.17 1.51,-28.49 c 0,0 -12.03,-29.26 -2.9,-41.7 9.11,-12.43 29.4,-33.22 36.9,-29.17 25.29,13.66 -2.91,62.17 -2.91,62.17 l 140.67,123.55 c 0,0 41.25,14.93 48.72,14.93 7.46,0 168.11,111.53 168.11,111.53 v 35.79 l -190.66,-142.48 -10.59,16.01 z m -604.92,-437.65 c 1,10.52 2.5,15.53 3.95,17.79 l -199.64,96.64 c 0,0 -172.07,42.25 -177.04,57.2 -4.98,14.94 -87.9,29.04 -56.4,48.11 31.52,19.07 -53.06,88.73 -100.33,31.52 19.9,24.87 57.22,63.39 72.15,49.11 14.92,-14.28 52.24,-49.11 101.99,-44.14 49.75,4.98 126.87,0 134.33,0 7.47,0 90.8,-63.02 216.43,-67.68 0,-26.85 47.27,-69.14 47.27,-69.14 0,0 29.85,17.42 44.78,17.42 4.6,0 13.99,-1.68 24.72,-3.98 l 318.91,236.99 -13.45,18.81 -339.68,-249.21 -5.89,8.03 339.77,249.28 -12.82,17.96 -341.68,-249.67 -5.87,8.03 341.76,249.74 -11.07,15.49 -344.03,-249.12 -5.84,8.07 344.09,249.15 -11.36,15.89 -336.84,-243.26 -5.83,8.06 336.88,243.3 -10.98,15.37 16.19,11.56 10.92,-15.29 74.92,54.11 -12.9,18.06 -416.18,-302.53 -5.83,8.07 c -4.53,-3.28 -8.49,-6.18 -11.67,-8.48 l -1.11,-4.86 c -27.99,6.47 -81.7,30.14 -133.63,53.05 -48.46,21.37 -94.22,41.58 -110.58,43.9 -15.05,2.16 -35.43,0.94 -59.07,-0.47 -29.49,-1.75 -62.95,-3.75 -95.1,0.45 l 1.28,9.88 c 31.24,-4.06 64.17,-2.12 93.23,-0.41 24.16,1.46 45.03,2.69 61.07,0.4 17.71,-2.53 61.95,-22.05 113.19,-44.63 23.66,-10.44 47.66,-21.02 69.34,-30.03 -15.84,32.47 -73.24,113.03 -113.91,130.67 -24.1,10.47 -213.21,38.11 -243.59,21.75 -16.65,-8.96 -42.4,-25.41 -63.27,-39.12 -3.05,-18.57 -3.9,-30.48 -0.46,-32.8 -28.19,6.65 -119.41,-109.44 -112.77,-145.92 0,0 -44.18,-24.13 -89.34,-24.44 -54.27,-27.38 -182.71,-104.62 -179.9,-221.48 23.64,0 83.42,10.18 83.42,-13.03 0,-23.23 -16.55,-106.02 31.55,-89.45 48.09,16.58 66.82,16.64 88.98,13.32 0,0 22.99,57.25 40.41,109.5 27.36,-22.39 14.92,-67.15 39.8,-32.32 24.87,34.83 12.45,87.08 29.86,62.19 16.25,-23.21 60.66,-55.09 76.63,-67.33 14.87,19.92 41.47,45.84 82.75,61.02 -18.65,8.77 -33.73,16.87 -43.08,23.73 -37.31,27.37 -49.44,42.29 -49.44,42.29 0,0 25.04,34.82 -22.23,22.38 -47.26,-12.43 -74.55,7.47 -69.58,22.4 4.98,14.93 27.4,47.22 42.32,43.51 14.93,-3.71 59.73,-21.13 59.73,-21.13 0,0 -1.69,-37.31 26.52,-42.29 28.22,-4.97 172.5,-42.29 189.91,-37.31 17.42,4.97 38.16,14.92 57.65,2.49 19.48,-12.44 119.4,-82.51 163.77,-92.88 23.86,-5.58 29.41,-0.93 31.92,25.71 m -44.36,-111.94 c 7.46,0 -55.98,12.43 -138.06,42.28 -30.09,10.94 -66.42,24.23 -102.25,38.01 -1.2,-17.86 -5.92,-40.59 -20.47,-55.83 32.28,-12.04 115.25,-44.68 123.96,-46.85 9.95,-2.49 34.21,3.11 49.13,0.62 7.94,1.63 28.48,-5.62 28.48,-5.62 0,0 19.4,-26.71 29.36,-26.71 19.9,0 52.87,36.68 29.85,54.1 m -258.15,-757.67 c -8.33,6.371 -19.87,7.282 -32.75,3.66 l 0.22,-0.14 c 21.82,-16.711 18.85,-57.25 -6.64,-90.531 -25.49,-33.289 -63.86,-46.739 -85.67,-30.02 -1.28,0.992 -2.48,2.063 -3.6,3.211 -2.07,-17.121 1.5,-31.281 11.47,-38.918 21.82,-16.703 65.7,3.938 98,46.117 32.29,42.18 40.78,89.922 18.97,106.621 m -87.99,-14.109 c -6.12,5.461 -18.33,1.758 -27.28,-8.289 -8.96,-10.031 -11.28,-22.602 -5.17,-28.063 6.11,-5.449 18.32,-1.73 27.29,8.289 8.96,10.051 11.27,22.602 5.16,28.063 m -68.71,815.159 c 6.4,-21.99 9.8,-57.11 15.97,-60.8 8.31,-4.97 43.14,-2.48 60.55,9.95 17.42,12.44 44.78,-29.86 52.25,-27.36 7.46,2.48 -2.49,68.88 14.92,63.04 l -6.43,7.59 c 13.59,11.55 17.34,34.73 17.76,52.07 -19.5,7.66 -38.38,15.35 -55.68,22.8 -1.25,-0.31 -2.45,-0.56 -3.77,-0.91 -52.9,-13.51 -83.01,-47.17 -95.57,-66.38 m 54.96,-649.128 c 12.16,18.078 3.31,42.309 3.31,42.309 l -26.52,6.199 c -4.98,1.66 -48.11,51.41 -48.11,51.41 0,0 -51.4,-20.73 -51.4,-42.711 0,-21.969 66.34,-55.969 66.34,-55.969 0,0 14.31,-0.191 33.17,27.372 10.37,-18.454 -24.56,-56.723 -37.34,-38.622 1.59,-27 49.98,-5.75 60.55,10.012 m -173.06,-126.863 c -18.66,18.242 -58.79,8.242 -94.98,-21.688 5.2,8.489 6.54,17.278 2.43,23.661 -7.07,10.98 -27.16,10.628 -44.87,-0.782 -17.71,-11.398 -26.33,-29.55 -19.27,-40.519 7.07,-10.961 27.14,-10.61 44.86,0.789 7.34,4.719 13,10.621 16.76,16.68 26.58,13.492 51.62,15.261 65.22,1.96 21.24,-20.761 6.54,-70.269 -32.85,-110.55 -4.69,-4.77 -9.5,-9.2 -14.39,-13.27 14.85,7.602 30.17,18.781 44.24,33.168 39.4,40.293 54.1,89.793 32.85,110.551 m -199.04,-168.547 c 0,0 19.78,63.316 16.17,93.289 -6.85,56.59 -41.05,72.129 -97.65,53.469 13.68,-3.91 40.01,-12.93 43.33,-22.879 3.32,-9.949 -1.04,-17.121 -1.04,-17.121 0,0 -86.24,28.199 -77.96,18.25 8.3,-9.961 20.75,-27.379 20.75,-27.379 0,0 -19.08,-19.063 -20.75,-15.75 -1.64,3.32 -58.23,44.359 -58.23,44.359 0,0 -61.58301,-47.511 -46.65301,-59.129 l 3.734,-9.902 c 24.86901,-4.41 58.79901,7.352 74.62901,23.02 l 55.97,-40.43 29.65,24.262 c 0,0 17.42,-0.661 3.94,-18.051 -23.64,-30.469 -62.96,-45.988 -79.04,-50.36 -27.22,-7.39 -63.23,2.321 -69.26201,4.059 -0.129,1.359 -0.242,2.711 -0.336,4.02 l -0.629,-3.727 0.965,-0.293 c 2.242,-22.789 10.88201,-52.199 53.14201,-60.039 44.78,-8.30103 114.22,10.59 117.54,25.5 3.32,14.91 36.48,22.18 36.48,22.18 z m -109.85,466.289 c 24.35,-61.621 67.82,-169.641 73.15,-169.641 7.46,0 24.88,12.442 24.88,12.442 l -98.03,157.199 c -9.72,24.578 -16.41,41.809 -16.41,41.809 l -17.41,12.429 z m 239.87,306.809 -6.73,7.32 -243.8,-223.89 6.74,-7.33 z m 9.95,-29.85 -6.73,7.32 -243.8,-223.89 6.74,-7.319 z m 9.95,-39.81 -6.73,7.33 -243.8,-223.901 6.74,-7.308 z m 9.95,-39.8 -6.73,7.32 -243.8,-223.88 6.74,-7.328 z m -210.72,-276.271 6.73,-7.328 243.8,223.899 -6.74,7.32 z m 230.62,246.421 -6.73,7.32 -243.79,-223.889 6.73,-7.321 z m -711.51801,379.31 c 8.321,-6.55 11.805,-17.24 12.895,-29.36 33.258,34.83 89.543,73.47 144.672,111.28 45.218,30.99 91.976,63.04 100.804,78.48 l 17.285,-9.88 c -10.562,-18.45 -47.476,-44.34 -106.832,-85.03 -56.804,-38.94 -131.152,-89.97 -156.718,-126.78 -2.762,-29.56 -7.325,-54.64 17.746,-40.7 44.777,24.87 74.633,47.25 101.996,24.87 25.473,-20.83 -7.203,-78.28 34.281,-82.13 1.738,81.59 96.344,234.62 155.059,295.9 l 14.37001,-13.76 c -60.78401,-63.47 -148.04601,-211.65 -149.61601,-281.99 46.976,-2.89 39.714,-64.04 28,-92.15 -12.442,-29.85 -64.68,97.01 -77.118,39.8 -12.441,-57.22 29.852,-109.46 42.289,-106.98 8.711,1.75 51.622,33.9 79.098,29.94 0.578,239.13 225.68701,421.4 321.93701,488.4 -0.99,0.58 -2.03,0.97 -3.01,1.6 -54.73,34.82 -246.27501,14.92 -296.03201,54.72 l -3.426,-3.6 c -1.141,1.07 -66.863,62.7 -164.641,106.38 l -417.36299,-233.52 c 76.56199,109.37 235.86299,260.25 386.98799,246.03 -58.902,22.28 -127.043,36.18 -198.582,27.53 -59.39,-45.83 -158.672,-135.91 -209.32799,-227.97 -17.183,-31.21 -30.457,-64.31 -40.191,-97.48 4.965,8.73 9.945,17.33 14.675,25.9 l 46.438,25.99 c -29.242,-41.78 -46.438,-77.53 -46.438,-95.65 0,-39.87 79.60599,37.33 92.04299,0 12.442,-37.3 39.805,-62.17 64.684,-32.33 24.871,29.85 166.668,253.59 375.633,253.66 15.09,0.01 26.5,0.26 34.922,0.56 -58.563,-7.08 -240.004,-44.9 -288.879,-208.38 45.922,61.73 127.445,117.15 156.941,112.11 -13.808,-5.2 -127.453,-143.65 -160.437,-206.64 22.093,-9.09 45.093,75.35 75.855,51.18 m -100.433,410.65 c 159.437,11.95 299.578,-82.01 357.144,-127.32 -23.687,36.69 -19.785,77.38 -7.945,77.38 14.93,0 230.51201,23.45 294.79201,133.09 21.15,36.07 -406.73401,-83.33 -513.70601,-51 180.898,29.77 684.92601,230.85 770.44601,360.35 1.06,3.68 2.04,7.31 3.07,10.96 -134.46,-15.51 -565.88301,-199.49 -723.71501,-241.2 -52.344,-33.64 -84.11,-71.9 -108.192,-101 -16.621,-20.1 -29.754,-35.96 -44.39,-43.29 -5.481,-2.73 -15.09,-8.95 -27.504,-17.97 m 224.285,197.72 c 172.832,78.37 536.96601,234.15 685.31601,226.75 60.82,225.38 69.26,406.13 70.4,452.24 -10.15,5.3 -26.11,10.71 -41.5,7.34 -18.16,-3.98 -31.23,-19.92 -38.81,-47.36 l -4.32,-15.63 -15.22,5.58 c -16.02,5.88 -38.34,10.1 -53.63,-3.08 -14.04,-12.12 -20.05,-36.8 -14.92,-61.41 l 2.3,-11.02 -9.99,-5.23 c -93,-48.69 -203.35,-174.13 -292.03,-274.9 -32.16,-36.59 -62.54,-71.13 -88.91701,-98.45 -17.863,-18.51 -41.394,-35.69 -66.293,-53.87 -42.464,-31.03 -90.171,-65.92 -132.386,-120.96 m 775.06601,662.41 c -2.68,-65.81 -15.25,-240.65 -73.74,-452.57 74.69,-112.25 23.97,-320.26 6.86,-412.91 19.3,12.55 41.13,26.31 56.2,34.43 35.28,19 228.71,-11.17 252.27,-21.38 5.44,-2.36 11.23,-5.92 17.2,-10.22 9.41,7.87 30.61,35.56 56.97,69.96 83.94,109.66 230.98,301.69 377.2,369.06 -54,47.58 -214.11,124.54 -332.45,181.44 l -11.98,5.76 -1.43,1.77 c -2.16,2.7 -5.25,8.52 -1.86,17.32 16.88,43.67 221.62,164.3 357.67,191.71 -6.9,6.49 -20,11.3 -37.42,14.78 -30.08,-15.12 -83.27,-60.17 -153.9,-73.31 -14.96,12.24 -236.87,46.27 -329.33,60.04 -13.62,-0.61 -24.54,-0.79 -32.02,-0.32 l 0.32,4.99 c -5.38,0.79 -8.39,1.21 -8.39,1.21 0,0 3.05,0.41 8.54,1.09 l 0.81,12.57 c 19.99,-1.3 70.96,2.73 129.97,7.37 33.52,2.64 66.21,5.09 97.71,7.21 -73.63,5.63 -167.52,4.79 -211.07,-10.03 l -2.8,-0.95 -2.95,0.19 c -17.36,1.08 -35.25,3.1 -52.57,5.02 -39.54,4.43 -80.43,9 -100.4,0 z m 473.02,15.28 c 144.04,6.05 246.58,-1.62 254.84,-46.47 l 1.84,-10.04 -10.06,-1.59 c -138.49,-22.08 -337.96,-146.87 -354.93,-179.31 l 4.42,-2.13 c 131.3,-63.12 294.51,-141.57 343.97,-190.96 14.68,5.6 29.34,9.92 43.89,12.56 62.54,11.41 104.12,4.28 123.62,-21.22 5.99,-7.83 9.27,-16.72 10.88,-25.81 l 75.35,-97.17 c 0,0 4.4,-38.02 0.58,-61.59 l 113.52,81.62 -8.92,3.52 c 24.78,62.66 -96.95,268.55 -214.26,397.25 -102.86,112.87 -110.27,141.57 -121.48,185 -0.93,3.62 -1.89,7.34 -2.94,11.22 -2.57,9.54 -2.82,19.57 -1.5,29.62 -7.45,-3.37 -17.19,-8.61 -25.11,-12.87 -9.36,-5.01 -19.95,-10.71 -30.72,-15.86 l -5.19,-2.47 -5.5,1.63 c -19.32,5.7 -89.99,-19.22 -141.58,-37.43 -17.76,-6.27 -34.81,-12.24 -50.72,-17.5 m 279.53,60.06 c 1.08,-3.95 2.04,-7.74 3,-11.44 8.45,-32.71 14.66,-56.52 68.93,-121.78 1.89,25.97 20.94,75.18 52.8,114.69 13.21,16.37 26.14,27.03 39.39,30.83 -47.23,43.19 -105.46,84.64 -120.38,89.92 -10.74,-8.26 -54.76,-61.39 -43.74,-102.22 m 75.09,107.16 c 39.75,-25.01 98.51,-74.89 125.41,-102.19 15.7,-10.48 32.38,-30.8 50.79,-62.73 21.42,-6.23 38.81,-10.07 36.4,-5.03 -13.3,27.96 -44.21,76.63 -47.7,83.23 -4.97,9.46 26.42,178.56 48.93,133.51 14.92,-29.85 80.85,-136.01 82.09,-111.13 0.92,18.19 -7.46,119.42 -58.88,194.04 -14.9,21.65 18.69,119.42 20.4,119.42 6.28,0 35.17,-91.22 97.53,-183.68 43.38,-64.31 178.53,-135.57 178.53,-135.57 13.67,-2.49 106.3,58.61 86.95,99.42 -82.1,136.83 -111.83,87.15 -108.1,118.25 3.73,31.1 167.92,-88.31 190.3,-98.27 22.4,-9.95 33.59,4.98 24.88,21.15 -8.7,16.17 -95.77,82.09 -130.6,105.72 -34.83,23.64 -92.87,12.45 -127.69,-0.41 -34.84,-12.85 -72.57,-14.51 -77.54,3.74 -4.98,18.24 87.06,70.06 87.83,66.33 0.76,-3.73 -20.66,-24.87 -30.61,-28.61 -9.95,-3.73 -2.5,-19.9 7.05,-26.12 4.98,4.98 76.28,34.84 107.8,28.2 31.51,-6.63 101.16,-39.8 101.16,-39.8 18.24,0 51.41,1.66 61.37,0 3.31,19.9 0,58.04 -9.96,69.65 -9.95,11.61 -44.78,11.61 -53.07,26.53 -11.61,3.33 -24.87,-9.94 -24.87,-9.94 l 9.95,28.19 c 0,0 -19.09,36.48 -56.6,34.83 -30.48,13.26 -0.32,43.79 -14.35,45.61 -42.07,5.41 -121.43,-67.82 -121.43,-67.82 0,0 -11.96,-8.81 -6.81,12.09 -20.12,-25.11 -62.17,-20.4 -69.49,-13.1 -24.87,23.22 -29.85,92.87 -19.9,117.75 -4.86,-21.09 53.63,-76.91 93.45,-91.81 0.81,2.24 1.71,4.61 2.75,7.23 25.71,45.61 121.05,86.23 160.86,52.85 -32.34,-3.54 -41.04,-41.66 14.93,-26.32 36.63,10.04 42.29,-32.34 84.58,-44.78 19.73,-5.8 34.51,-2.2 44.73,3.28 -0.42,1.73 -0.66,2.78 -0.66,2.6 0,-0.95 8.8,42.02 -18.56,83.68 -7.12,10.83 -2.47,35.94 -6.1,48.33 -14.19,7.54 -36.42,14.07 -60.24,14.73 -6.78,-8.65 -13.95,-15.76 -17.63,-16.42 -14.94,-2.69 -64.26,-19.67 -75.88,-18.03 -11.61,1.65 23.22,17.83 23.22,22.8 0,4.98 -61.36,39.81 -101.16,34.83 -28.19,29.86 10.22,19.91 10.22,19.91 0,0 96.48,-19.95 105.87,-44.79 24.88,-8.29 9.95,17.45 9.95,17.45 0,0 -81.27,45.77 -132.68,42.35 -31.5,14.83 -41.45,24.79 -41.45,24.79 29.85,8.29 109.45,-11.62 126.03,-19.91 16.59,-8.29 21.56,10.95 21.56,10.95 0,0 23.22,6.27 19.9,10.94 -3.31,4.65 -13.27,41.13 -51.41,56.06 6.64,24.87 102.82,-44.77 119.41,-61.36 16.58,-16.59 0,-38.11 0,-49.74 0,-4.02 -3.05,-10.61 -7.37,-17.59 17.44,0.51 48.07,-0.4 57.96,-12.12 8.92,-10.61 16.51,-22.77 20.89,-30.29 7.19,8.26 34.79,39.48 46.28,45.92 13.26,7.43 24.87,-19.1 33.16,-35.69 8.29,-16.58 23.83,-6.41 38.46,-2.36 l 1.56,0.24 c -6.37,67.49 -33.18,40.13 -39.19,103.28 -4.57,48.1 28.02,45.61 17.41,76.3 -14.65,42.44 -61.36,77.52 -126.03,104.06 -64.69,26.53 -97.44,34.41 -114.03,36.07 -16.58,1.67 -68.41,9.13 -93.28,7.46 -24.89,-1.65 -53.07,-18.24 -63.03,-38.14 -9.95,-19.9 -13.26,-41.46 -19.9,-53.06 -6.62,-11.62 -3.31,14.92 -11.6,28.19 -8.3,13.26 -44.79,-23.22 -77.78,-48.1 -32.99,-24.87 -74.81,-84.58 -90.64,-106.14 -15.86,-21.56 -23.97,-94.53 -6.89,-111.12 17.06,-16.58 -2.16,-21.56 -8.79,-39.8 -6.64,-18.24 -6.64,13.27 -29.85,33.18 -23.22,19.92 -6.64,-23.23 -23.22,9.94 -16.59,33.17 -105.29,76.29 -105.29,76.29 0,0 -57.89,-53.05 -65.43,-86.23 -6.04,-26.57 3.39,-91.83 17.17,-131.74 3.07,5.89 5.96,11.03 11.06,7.35 11.48,-8.3 41.32,-17.43 52.93,1.24 11.61,18.66 24.2,18.66 24.2,18.66 0,0 0.68,-49.76 -5.95,-51.41 -4.9,-1.23 -38.39,-16.01 -66.39,-12.24 14.52,-60.34 -43.14,-232.65 -57.88,-275.03 m 909.62,346.06 c -0.3,8.59 -0.15,17.47 0.76,26.61 4.16,41.56 -16.68,47.81 -24.51,61.34 -32.33,-0.03 -77.64,-2.9 -73.34,-19.05 6.64,-24.87 43.13,-48.5 51.41,-52.44 5.36,-2.54 29.33,-10.36 45.68,-16.46 m -72.63,-16.92 c -10.65,8.38 27.18,-4.74 17.89,6.4 -34.9,41.91 -76.65,79.86 -87.13,87.72 -9.66,7.26 14.12,-64.65 21.33,-108.08 9.59,-20.47 25.68,-53.04 48.36,-92.83 20.2,6.3 90.81,34.97 -0.45,106.79 m -400.94,-670.84 h -3.3 c -1.66,0 -8.2,-12.32 -0.38,-19.78 7.83,-7.47 64.22,-18.09 69.2,-21.07 4.97,-3 6.64,20.91 0,28.26 -6.64,7.36 -65.52,12.59 -65.52,12.59 m 1.67,-39.98 c -4.38,-0.38 -15.77,-30.67 8.28,-41.97 24.06,-11.34 82.1,-11.34 86.25,-8.85 4.15,2.49 3.32,16.83 3.32,16.83 0,0 -30.69,40.06 -97.85,33.99 m 47.27,75.22 c -7.47,12.44 -42.3,9.95 -52.24,8.31 0,0 -0.84,-14.12 0,-24.89 0.83,-10.78 58.87,-8.3 61.36,-9.22 2.48,-0.93 -1.67,13.36 -9.12,25.8 m -409.66,-23.79 c 41.27,-49.59 83.52,-108.81 117.87,-166.68 -9.89,56.45 -26.28,174.74 5.7,195.44 33.68,21.79 27.51,-71.09 58.54,-50.47 31.02,20.62 86.93,61.15 97.53,22.24 0.35,-1.35 0.58,-2.63 0.71,-3.87 38.82,74.24 82.37,130.62 106.07,158.9 -5.11,14.58 -8.99,24.95 -10.07,24.95 -3.46,0 -81.13,-116.92 -81.13,-116.92 0,0 -83.76,39.42 -128.18,61.92 -7.64,3.85 -32.47,15.05 -58.92,26.92 l 0.53,-0.95 c -76.3,36.5 -127.71,-14.92 -139.32,-36.72 -11.61,-21.81 34.83,-59.46 45.63,-82.68 7.8,-16.75 -6.41,-27.42 -14.96,-32.08 m 207.53,-357.82 c -17.37,119.15 14.64,232.41 57.61,323.75 -25.17,-31.12 -73.51,-87.01 -83.03,-258.96 -2.22,3.23 -4.39,6.48 -6.52,9.66 12.64,-34.24 18.65,-64.17 15.27,-86.44 z m 26.45,0.04 13.55,-18.95 94.8,68.46 -10.54,14.74 56.67,40.52 10.34,-14.47 113.15,81.7 0.79,-1.08 c 5.76,12 14.38,22.45 18.84,27.41 7.95,8.83 36.88,14.78 58.61,18.13 -18.2,6.24 -32.76,11.55 -38.45,14.52 z m 69.9,-97.81 11.8,-16.49 93.86,69.76 -11.38,15.91 z m -18.09,25.34 12.3,-17.23 94.3,69.17 -12.2,17.05 z m -15.69,21.94 9.89,-13.85 94.41,68.99 -9.58,13.44 z m -5.79,8.09 94.71,68.58 -10.91,15.28 -94.8,-68.46 z m -98.1,-156.37 12.39,-17.34 89.14,66.24 -12,16.79 z m -18.29,25.6 12.5,-17.5 89.53,65.69 -12.38,17.32 z m -93.37,-107.51 12.9,-18.02 79.19,58.84 -12.53,17.54 z m -18.44,25.81 12.66,-17.72 79.54,58.37 -12.54,17.56 z m -5.79,8.09 79.67,58.21 -10.43,14.58 -79.89,-57.86 z m -90.41,-118.01 13.38,-18.72 74.21,55.13 -13.06,18.27 z m -18.59,26.03 12.8,-17.93 74.54,54.68 -12.71,17.78 z m -16.8,23.53 11.02,-15.43 74.62,54.53 -10.79,15.1 z m 57.79,78.07 -74.93,-54.11 11.34,-15.87 74.86,54.21 z m 120.32,86.89 -79.99,-57.76 11.24,-15.72 79.9,57.86 z m -98.77,-31.5 13,-18.17 79.97,57.76 -11.53,16.15 32.39,23.15 11.42,-15.99 90.02,65.01 -13.44,18.8 z m 147.95,31.13 10.33,-14.44 89.65,65.52 -10.04,14.05 z m 84.16,73.22 -11.06,15.46 -90.02,-65.01 11.13,-15.57 z m -727.59,-303.86 c -19.69,9.17 -82.69,-17.65 -87.67,-17.65 l -1.34,0.22 c 30.24,-34.8 56.63,-76 62.09,-93.26 2.86,-1.14 5.66,-2.24 8.39,-3.32 -6.74,6.93 -10.23,14.66 -6.35,21.14 20.96,3.77 80.36,67.04 24.88,92.87 m 345.39,112.54 37.83,27.19 c -46.02,72.05 54.51,160.16 96.78,232.97 l -0.21,0.1 c 0.25,0.53 25.01,53.53 1.55,84.15 -17.05,22.27 -55.38,28.14 -113.92,17.46 -162.03,-29.58 -339.69,-261.63 -435.11,-386.28 -29.1,-38.02 -46.64,-60.67 -56.96,-70.12 8.65,-7.08 17.47,-15.59 26.2,-24.95 23.84,35.89 247.72,367.37 425.17,438.97 141.8,57.21 156.72,-2.18 64.68,-111.95 -69.36,-82.72 -74.22,-161.6 -46.01,-207.54 m 673.99,425.49 -103.17,-74.51 10.85,-15.2 94.88,68.7 c -3.54,6.55 -4.02,13.79 -2.56,21.01 m 8.42,-33.59 c -0.85,1 -1.64,1.94 -2.36,2.84 l -92.59,-67.05 9.42,-13.19 73.38,53.64 c 1.65,3.33 3.47,6.62 5.26,9.8 2.26,4.03 5.49,9.82 6.89,13.96 m 20.6,-73.11 c -8.51,3.86 -16.57,7.89 -23.06,11.72 l 2.68,-3.62 -62.07,-45.54 11.13,-15.56 z m 27.78,-11.81 c -6.28,2.5 -13.09,5.3 -19.89,8.27 l 1.42,-1.93 -74.84,-55.62 9.06,-12.67 c 37.98,29.5 68.42,52.17 84.25,61.95 m 79.36,-67.42 c -22.11,13.17 -175.8,-89.65 -223.07,-152.67 -13.09,-17.47 -20.03,-47.3 -21.96,-80.39 117.25,-5.08 337.24,30.22 337.24,30.22 0,0 0.24,-1.08 0.68,-3.02 -0.09,1.04 -0.19,2.19 -0.27,3.17 l -0.41,-0.15 c -1.39,0 -1.15,1.6 0,4.6 -0.39,4.08 -0.72,7.27 -1.02,9.22 -2,13.8 6.06,39.65 14.65,62.23 -4.58,36.05 -29.12,81.14 -105.84,126.79 m 109.08,-452.49 c -1.32,21.96 -3.28,54.3 -5.44,89.03 -28.69,-21.12 -235.66,-23.23 -318.56,-23.22 4.96,-6.7 10.41,-11.41 16.3,-13.52 9.78,-3.49 27.99,-16.01 50.63,-33.69 61.45,-1.05 191.19,10.31 257.07,-18.6 m -254.3,564.84 -62.26,-45.5 12.11,-16.95 60.23,44.18 c -4.62,3.12 -7.91,6.07 -9.1,8.61 -1.13,3.12 -1.32,6.36 -0.98,9.66 m 321.82,36.59 c -13.27,7.27 -90.04,49.32 -105.19,55.37 -9.46,3.79 -60.69,19.86 -103.82,34.19 -25.71,-2.94 -65.6,-9.91 -72.53,-17.61 -8.22,-9.15 -33.69,-40.24 -15.88,-56.44 1.02,-0.93 1.8,-1.94 2.4,-3.01 20.98,2.56 55.42,7.19 74.04,-7.71 24.87,-19.9 121.08,-48.09 97.86,-26.54 -23.23,21.57 -34.83,37 -34.83,37 l 74.63,-53.58 c 0,0 46.51,-3.33 43.16,0 -2.52,2.49 25.89,26.53 40.16,38.33 m -264.14,158.34 c 8.49,-2.9 28.4,-1.59 46.43,6.12 l 62.32,44.83 -1.11,-0.38 c 0,0 -8.08,16.28 31.72,26.4 3.25,0.82 6.44,1.82 9.52,2.83 l 14.9,10.71 c -15.79,6.12 -39.05,12.07 -57.23,16.72 -24.34,6.22 -34.68,9.05 -39.91,12.35 -10.52,0.45 -49.41,-17.18 -57.72,-27.62 3.9,-22.51 -2.94,-64.64 -8.92,-91.96 m 221.8,73.95 c 20.37,7.36 40.54,13.95 58.7,18.03 l -1.02,1.4 62.69,45.68 -11.72,13.35 z m 204.87,147.96 11.44,-12.95 133.59,97.31 -10.95,12.47 z m 230.61,166.53 10.61,-12.1 135.14,98.47 -10.19,11.55 z m 246.73,178.19 9.95,-10.99 149.1,108.6 -11.21,9.17 z m 287.83,207.86 9.88,-9.22 211.34,153.97 c -5.17,4.38 -9.74,8.25 -13.52,11.41 l 2.93,-4.04 z m 241.35,127.61 c -4.26,3.63 -8.4,7.17 -12.32,10.51 l -211.74,-154.25 11.78,-10.98 z m 3.87,-3.33 2.94,-4.02 -211.67,-154.28 10.52,-9.82 212.42,155.84 c -4.75,4.14 -9.52,8.25 -14.21,12.28 m -474.4,-396.97 156.68,116.43 -8,6.52 -156.21,-114.62 z m -245.18,-182.17 134.3,99.81 -7.97,9.04 -134.95,-99.03 z m -227.72,-169.21 132.32,98.33 -9.09,10.38 -133.01,-97.61 z m -152.12,-59.08 0.48,-0.18 c 5.49,-2.09 11.94,-4.56 19.08,-7.36 l 20.39,14.94 -11.61,13.24 z m 11.13,40.21 -49.8,-36.27 c 10.29,1.29 19.57,1.38 27.32,-0.23 l -0.15,0.23 33.24,24.22 z m 229.5,167.2 -133.56,-97.29 10.62,-12.03 133.47,97.29 z m 231.36,168.56 -135.18,-98.49 10.5,-12.03 135.22,98.53 z m -107.34,-130.33 134.92,99 -10.43,11.85 -135.23,-98.58 z m -228.93,-167.96 133.06,97.63 -11.01,12.55 -133.46,-97.26 z m 618.29,471.85 -153.54,-111.91 10.29,-11.41 154.98,113.7 z m -20.64,16.85 -150.32,-109.52 10.69,-11.82 152.31,110.99 z m -676.59,-578.13 -10.23,11.67 -16.07,-11.8 c 5.33,-2.14 10.96,-4.46 16.8,-6.93 z m 1060.67,803.56 2.96,-4.04 -211.77,-155.36 6.67,-6.23 211.67,157.26 c -3.12,2.76 -6.31,5.55 -9.53,8.37 m 26.38,13.59 4.27,-6.98 189.49,102.09 -1.03,1.22 z m 190.8,146.7 17.69,-35.93 21.74,13.79 -8.52,22.14 z m 227.65,125.02 c 9.39,-23.37 19.69,-47.51 24.23,-56.05 6.82,4 20.61,11.16 41.18,21.39 l -16.86,46.24 z m 200.68,62.41 -2.54,5.71 -120.33,-44.5 5.48,-16.93 z m -103.64,-81.55 11.49,-11.75 115.22,66.75 -6.29,2.09 z m -40.42,-43.91 c 0.07,-19.28 2.45,-38.95 5.21,-42.97 12.27,0.06 55.54,11.98 60.7,18.8 -2.41,6.38 -19.02,25.47 -35.13,41.85 -15.45,-6.37 -29.48,-14.36 -30.78,-17.68 m -220.22,-77.42 c 3.85,-20.9 10.09,-45.78 13.79,-51.17 6.68,1.08 31.46,8.46 55.37,16.16 l -35.09,47.84 c -16.75,-3.57 -32.57,-9.46 -34.07,-12.83 m 160.85,74.74 -110.48,-47.8 3.24,-6.83 109.84,43.76 z m -148.83,-32.57 4.59,-6.35 134.82,67.97 c -1.69,11.13 -4.59,21.59 -6.86,24.79 -15.22,-5.12 -109.61,-69.75 -132.55,-86.41 m 369.78,146.96 -0.59,-0.26 19.18,-6.4 9.99,-3.32 1.07,-0.36 -1.07,-0.62 -9.9,-5.74 c 0.21,-12.25 0.91,-22.83 3.01,-30.46 -2.1,7.63 -2.79,18.21 -2.99,30.46 l 9.89,5.74 c 0.35,-33.48 3.65,-39 5.64,-39.19 1.9,-0.17 4.78,-0.26 8.28,-0.26 31.77,0 58.92,5.4 61.06,10.05 -0.79,8.03 -16.17,23.63 -26.14,31.91 -10.82,4.32 -38.17,14.45 -48.76,14.8 0.2,-2.98 0.55,-7.15 0.55,-12.39 0,-1.38 0.72,-2.64 0.73,-3.94 l -8.62,3.32 z m 63.69,88.34 -35.61,-22.14 108.01,-49.53 32.34,10.41 z m 46.91,-135.72 c -11.73,-12.84 -65.77,-12.99 -68.12,-12.99 2.32,0 56.4,0.12 68.14,12.96 2.59,2.85 2.96,5.71 2.77,7.62 -1.38,15.31 -27.37,36.97 -30.33,39.4 l -1.21,0.43 c -4.03,1.62 -39.54,15.34 -53.73,15.34 h -0.21 c 14.25,0 49.75,-13.72 53.77,-15.33 l 1.29,-0.41 c 2.96,-2.43 29,-24.1 30.38,-39.41 0.18,-1.92 -0.16,-4.77 -2.75,-7.61 m 467.97,-11.46 c 0,0 -1.49,-0.83 -4.28,-2.4 -2.83,-1.51 -6.84,-4.03 -12.25,-6.65 -5.46,-2.47 -11.93,-5.88 -19.87,-8.6 -7.76,-3.11 -16.88,-5.81 -26.93,-8.23 -10.06,-2.32 -21.15,-4.29 -32.98,-5.17 -11.85,-1.21 -24.41,-1.05 -37.36,-0.52 -25.91,1.6 -53.34,6.7 -79.85,14.63 -26.92,7.89 -52.84,18.32 -76.61,29.23 -0.84,-2.34 -2.41,-4.32 -5.08,-5.65 -2.87,-1.44 -25.97,-13.86 -61.55,-32.97 -1.57,0.52 -3.18,0.99 -4.72,1.09 -7.22,1.7 -15.4,0.37 -23.12,-2.45 -7.79,-3.11 -14.56,-9 -19.63,-16.27 -1.89,-3.24 -3.68,-6.64 -4.87,-10.46 -36.93,-19.82 -80.06,-42.93 -125.24,-67.04 -1.87,1.27 -3.8,2.57 -6.01,3.54 -3.24,1.22 -6.79,2.88 -10.19,3.13 -7.22,1.69 -15.4,0.37 -23.14,-2.46 -7.77,-3.1 -14.55,-8.99 -19.62,-16.27 -2.21,-3.81 -4.49,-7.68 -5.54,-12.42 -1.47,-4.21 -1.53,-7.03 -1.88,-10.84 -62.6,-33.25 -125.09,-66.16 -176.98,-92.96 -0.65,1.41 -1.34,2.8 -2.08,4.35 -1.14,2.22 -2.96,4.22 -4.56,6.54 -1.78,2.19 -4.11,4.08 -6.33,6.33 -2.61,1.68 -5.22,3.74 -8.4,5.15 -3.24,1.22 -6.79,2.87 -10.19,3.12 -7.21,1.69 -15.39,0.37 -23.13,-2.46 -7.78,-3.1 -14.56,-8.99 -19.63,-16.27 -2.21,-3.81 -4.49,-7.68 -5.54,-12.42 -1.73,-5.01 -1.45,-7.95 -2.09,-13.05 0.4,-7.05 1.84,-14.1 4.84,-20.41 -25.13,-12.37 -42.17,-20.16 -47.4,-21.27 -62.19,24.87 -140.14,69.65 -289.4,-46.43 -176.74,-140.14 -956.14,-735.48 -1017.92,-782.64 34.7,-23.24 64.55,-51.19 77.25,-83.51 5.72,-14.57 -4.28,-26.28 -14.25,-33.8 6.01,-18.41 0.78,-66.92 -2.12,-104.23 -1.94,-24.88 -18.22,-48.37 -33.26,-71.07 -5.34,-8.08 -10.53,-16.03 -14.84,-23.92 -3.58,-6.51 -6.58,-12.93 -8.58,-19.35 -4.49,-14.46 -8.97,-4.08 -13.14,14.8 -2.35,10.63 -4.6,24.16 -6.68,37.39 -1.51,9.77 -2.98,19.87 -4.31,28.36 l -0.06,1.14 c -32.25,8.12 -82.37,23.92 -110.04,37.85 -0.01,-0.03 -30.37,-57.47 -22.08,-69.07 8.3,-11.6 64.68,-58.04 84.58,-58.04 19.91,0 53.08,-9.95 58.05,9.95 0.8,3.18 0.86,7.43 0.54,12.21 4.17,-18.89 8.65,-29.16 13.14,-14.7 2,6.43 5,12.89 8.58,19.4 4.31,7.91 9.5,15.88 14.84,23.95 70.44,-36.19 147.51,-73.47 160.73,-76.15 3.51,-0.08 9.94,-1.37 14.99,-8.58 17.77,-25.46 24.71,-166.22 9.87,-200.83 -8.4,-19.6 -21.13,-75.28 -31.33,-120.01 -7.38,-32.3 -13.76,-60.2 -17.99,-72.87 -4.78,-18.98 31.85,-140.03 56.11,-220.12 12.78,-42.26 24.88,-82.16 33.71,-114.53 31.11,-114.12 55.23,-472.449 50.19,-522.848 -4.2,-42.043 -50.48,-124.332 -105.96,-219.601 -7.42,-12.731 -14.31,-24.59 -20.33,-35.09 -27.37,-47.91 -87.24,-64.211 -141.48,-64.211 -38.05,0 -73.32,8.019 -92.65,18.769 -15.19,8.442 -43.3,31.871 -74.35,59.661 -49.6,35.339 -108.49,82.289 -163.46,131.421 -18.7,-191.82 -38.45,-426.42103 -58.35,-473.17103 v -18.719 h -271.78 l -3.5,4.078 c -2.87,3.473 -9.46,11.633 28.56,228.23003 -9.95,59.719 -199.42,187.442 -416.65,170.852 -217.24,-16.59 -267.12,-393.21103 -267.12,-393.21103 h -313.45 c 0,0 106.14,91.44103 208.83,365.07003 57.85,154.168 121.62,329.64 316.22,418.89 3.13,1.43 6.38,2.63 9.57,4.02 -3.22,-1.05 -6.41,-1.87 -9.57,-1.87 h -0.01 c -24.74,19.9 -158.61,-71.59 -195.42,-106.78 -73.27,-70.068 -238.45,-539.588 -367.77,-669.08003 -41.46,-13.281 -169.16,-21.5 -197.35,-9.891 -6.63,0 140.97,106.17203 207.3,252.10203 66.34,145.93 174.97,427.069 255.4,520.789 47.83,55.7 246.49,160.2 375.28,218.91 201.03,91.62 254.92,222.24 298.05,265.35 43.12,43.12 76.27,165.85 -0.02,205.66 -76.3,39.8 -182.47,-86.25 -281.46,-54.82 -48.64,15.45 22.63,117.83 45.02,141.06 9.83,10.21 10.85,19.75 9.09,27.27 l -157.7,-116.34 10.27,-131.53 c 0,0 -125.83,-87.05 -193,-166.66 -67.17,-79.6 -313.13,-450.26 -425.08,-450.26 -111.94,0 -67,94.53 -52.08,151.75 -22.39,42.29 -44.7,0 -44.7,0 0,0 -34.8,-159.22 -4.94,-179.12 29.84,-19.899 121.91,-39.801 194.05,17.42 72.15,57.21 129.37,136.81 169.18,201.49 39.8,64.69 228.86,283.59 281.1,318.43 52.24,34.82 123.53,115.34 126,142.69 111.95,-23.2 184.08,27.93 218.16,43.8 49.32,22.98 125.55,51.5 87.4,-57.96 -38.14,-109.46 -95.71,-185.75 -276.49,-293.54 -128.73,-76.77 -352.2,-178.13 -409.63,-245.46 -120.92,-141.82 -251.25,-548.949 -332.1,-628.55 -80.85,-79.61 -199.43,-172.48103 -199.43,-172.48103 0,0 -943.38401,-11.05 -970.47801,-5.527 -27.078,5.527 400.79801,338.87903 400.79801,338.87903 0,0 60.04,76.18 57.83,109.711 l -64.3,-69.992 c 0,0 -25.87101,64.769 -43.28101,57.3 -17.418,-7.46 -466.035,-390.55803 -505.836,-397.19903 -16.59,43.11003 494.012,540.30103 494.012,540.30103 40.383,0 61.57501,-172.133 61.57501,-172.133 l 44.78,53.082 8.08,1 c -14.22,21.91 -53.82,117.629 -82.88801,189.821 l -74.453,-53.161 c 0,0 0,12.43 -156.723,14.918 -156.727,2.481 -131.848,-119.41 -139.594,-129.359 -7.73,-9.949 97.301,-2.488 87.352,27.352 -9.953,29.859 156.722,89.57 156.722,89.57 l 32.34,-24.883 c 0,0 -286.082,-301 -415.441,-440.309 -20.223,258.899 142.098,537.52 203.48,632.65 -6.109,2.49 -12.355,5.05 -18.695,7.62 -73.891,22.74 -155.23,51.18 -222.656,84.71 -63.16399,24.33 -120.61699,51.88 -145.71499,85.31 -57.57,76.77 -44.145,260.23 28.715,392.64 71.90199,130.66 232.11699,253.35 265.10899,269.86 9.027,4.49 20.942,18.91 34.758,35.59 27.699,33.48 69.352,83.82 142.59,123.39 47.066,65.71 102.73,106.35 147.582,139.11 24.863,18.16 46.328,33.84 62.406,50.51 25.895,26.83 56.05101,61.11 88.00101,97.41 87.4,99.35 195.5,222.23 291.13,276.48 -3.45,31.57 6.39,61.71 26.4,78.99 12.76,11 34.63,21.3 68.68,13.02 15.9,41.18 43.08,52.97 64.1,55.28 24.98,2.77 52.1,-7.86 66.68,-19.31 27.32,7.66 65.68,3.37 106.02,-1.14 15.99,-1.77 32.49,-3.62 48.27,-4.7 62.94,19.92 196.28,15.91 272.14,5.1 22.32,6.18 50.5,16.13 80.25,26.65 73.6,25.97 125.39,43.17 153.77,39.2 8.57,4.23 16.92,8.71 25.02,13.07 21.46,11.54 36.68,19.63 48.81,19.82 14.41,33.25 39.84,60.91 49.82,64.24 3.87,1.29 10.71,-0.72 19.52,-5.08 13.03,15.76 35.02,71.17 35.02,71.17 -8.28,70.41 -22.29,242.45 -21.51,310.67 0.79,68.21 20.69,224.94 70.44,304.54 49.76,79.61 129.36,136.82 169.17,191.55 39.8,54.73 181.59,84.58 196.53,84.58 14.92,0 199.01,22.39 238.81,12.44 39.8,-9.95 144.29,-44.78 174.14,-74.63 29.85,-29.85 62.19,-84.97 89.56,-123.33 27.35,-38.37 47.26,-105.54 44.78,-147.83 -2.49,-42.29 -7.05,-60.39 0.21,-104.82 7.25,-44.44 -17.64,-152.65 -27.59,-175.64 -6.75,-15.66 -25.02,-70.39 -33.67,-95.53 -8.08,-42.55 -26.04,-95.42 -65.52,-138.17 -6.36,-28.62 -20.17,-56.64 -32.31,-87.77 -24.87,-63.73 -129.7,-211.54 -129.7,-211.54 -49.75,-52.24 -58.88,-65.92 -71.32,-98.26 -9.07,-23.58 -64.78,-14.73 -98.19,-4.37 -9.5,-1.02 -17.42,-2.1 -22.04,-3.25 -19.05,-4.64 83.21,-134.09 112.5,-170.61 l 14.09,10.14 c 1.42,3.55 3.16,7.19 4.82,10.4 -5.73,1.5 -11.04,3.45 -15.62,5.75 l -7.06,3.54 1.84,7.67 c 9.52,39.97 13.82,80.63 10.02,94.57 l -0.87,3.23 1.24,3.1 c 7.2,18.04 46.2,35.31 64.48,40.12 11.61,3.08 19.02,2.7 23.93,-1.22 3.01,-1.75 20.15,-6.13 33.92,-9.64 25.71,-6.59 54.47,-13.99 70.96,-22.58 l 1179.49,848.1 0.19,0.14 0.43,0.19 35.09,14.73 c 2.94,1.16 5.75,2.75 8.64,4.09 l 8.58,4.22 17.17,8.42 c 11.51,5.52 22.8,11.46 34.12,17.35 11.12,5.75 22.2,11.56 33.22,17.5 l 23.96,65.57 0.27,0.71 0.66,0.31 463.26,209.05 c 3.85,2.86 9.77,7.26 17.58,13.05 6.69,5.65 14.92,12.2 24,20.36 4.47,4.21 9.22,8.68 14.23,13.39 4.97,4.77 9.77,10.18 15.03,15.61 10.27,11.08 20.86,23.62 31.25,37.53 10.48,13.84 20.59,29.17 30.53,45.38 9.6,16.42 19.25,33.58 27.97,51.67 8.92,17.97 17.37,36.58 25.64,55.34 16.6,37.4 32.41,75.65 53.07,108.67 10.32,16.46 22.37,31.26 35.84,43.04 13.51,11.67 28.18,20.71 42.95,25.72 7.23,2.82 14.56,4.42 21.39,6.14 6.99,0.93 13.55,2.48 19.82,2.76 6.29,0.28 12.15,0.79 17.57,0.83 5.42,-0.2 10.39,-0.37 14.88,-0.54 8.98,-0.24 15.96,-1.61 20.75,-1.97 4.77,-0.57 7.32,-0.85 7.32,-0.85 0,0 -2.56,0.22 -7.34,0.63 -4.81,0.22 -11.8,1.37 -20.77,1.34 -4.47,0.03 -9.42,0.05 -14.82,0.08 -5.39,-0.19 -11.19,-0.88 -17.39,-1.36 -6.19,-0.46 -12.64,-2.17 -19.5,-3.33 -6.66,-1.88 -13.81,-3.67 -20.79,-6.63 -14.29,-5.33 -28.23,-14.56 -40.97,-26.24 -12.72,-11.81 -23.97,-26.5 -33.57,-42.91 -19.25,-32.91 -33.8,-71.26 -49.28,-109.26 -7.71,-19.05 -15.68,-38.07 -24.14,-56.53 -8.27,-18.56 -17.57,-36.36 -26.87,-53.43 -9.65,-16.88 -19.55,-32.95 -29.93,-47.52 -10.28,-14.65 -20.81,-27.97 -31.1,-39.77 -5.28,-5.79 -10.09,-11.56 -15.09,-16.64 -2.41,-2.41 -4.56,-4.55 -6.83,-6.84 l 102.92,46.45 -104.11,-47.62 c -2.08,-2.1 -4.33,-4.36 -6.33,-6.35 -9.23,-8.83 -17.86,-16.14 -24.74,-22.25 -14.08,-11.14 -22.11,-17.49 -22.11,-17.49 l -6.06,7.88 -6.05,7.9 c 0,0 0.51,0.38 1.48,1.11 l -457.55,-209.32 -23.61,-65.7 -0.27,-0.7 -0.65,-0.35 c -11.23,-6.14 -22.51,-12.14 -33.82,-18.04 -11.31,-5.96 -22.6,-11.98 -34.1,-17.57 l -17.19,-8.53 -8.58,-4.29 c -2.88,-1.36 -5.66,-2.94 -8.64,-4.15 l -35.06,-14.91 -1257.25,-913.88 c 18.51,3.37 46.97,14.16 76.83,25.57 1.2,0.47 2.41,0.92 3.62,1.39 l -0.2,0.26 136.36,98.48 -7.24,8.26 95.45,70.27 7.98,-9.07 134.14,96.87 -8.67,9.88 97.09,69.09 8.1,-9.25 135.54,97.88 -6.54,7.45 109.69,81.49 7.9,-8.75 146.6,105.87 -8.51,6.95 135.35,107.3 13.68,-12.76 211.2,152.53 c -4.1,3.44 -6.61,5.52 -6.61,5.52 7.47,8.2 115.26,46.35 122.73,68.74 7.46,22.39 34.04,67.58 34.04,67.58 l 61.4,27.77 v -39.8 l 69.66,39.8 v 19.9 l 126.83,64.68 7.86,-29.85 68.6,21.57 c 0,0 -3.01,46.42 0.31,41.45 3.32,-4.98 107.95,61.36 107.95,61.36 l 1.78,-31.51 74.75,8.3 v 43.12 l 84.53,45.97 c 0,0 41.85,-21.1 58.44,-24.41 16.6,-3.33 45.4,-3.33 45.4,-3.33 l 61.66,-43.11 c 0,0 3.47,-41.47 8.44,-41.47 2.48,0 10.74,-6.53 18.34,-13.11 3.46,-2.09 7.04,-4.22 10.77,-6.48 10.95,-6.56 23.24,-13.75 36.35,-21.05 6.02,2.7 9.32,4.17 9.32,4.17 0,0 3.84,-5.81 6.56,-12.79 24.91,-13.2 52.51,-26.21 81.47,-36.14 25.56,-8.92 52.07,-15.12 77.32,-17.83 12.63,-1.09 24.93,-1.82 36.56,-1.15 11.66,0.33 22.64,1.77 32.65,3.61 10.02,1.91 19.13,4.19 26.96,6.9 7.99,2.35 14.56,5.44 20.13,7.65 5.5,2.36 9.59,4.71 12.48,6.07 2.86,1.44 4.4,2.21 4.4,2.21 m -998.09,276.47 c 7.44,-31.05 18.03,-60.99 26.66,-89.07 4.45,-14.02 8.14,-27.62 11.19,-40.53 2.74,-12.91 4.95,-25.16 5.22,-36.28 0.48,-5.59 -0.25,-10.75 -0.33,-15.73 -1.06,-4.71 -1.17,-9.48 -2.75,-13.38 -1.38,-3.97 -2.32,-7.84 -4.37,-10.8 -1.7,-3.13 -3.15,-6.18 -5.05,-8.01 -1.85,-2.1 -2.98,-3.98 -4.71,-5.7 -2.05,-1.74 -3.78,-3.21 -5.19,-4.4 -2.83,-2.38 -4.34,-3.65 -4.34,-3.65 l 13.17,-14.91 c 0,0 1.48,1.32 4.18,3.82 1.37,1.25 3.06,2.78 5.03,4.59 2.01,2.09 4.39,5.33 6.9,8.57 2.84,3.27 4.6,7.22 6.7,11.47 2.43,4.16 3.6,9.11 5.11,14.29 1.75,5.17 1.78,10.82 2.74,16.67 -0.08,5.77 0.44,11.97 -0.34,18.16 -0.82,12.56 -3.75,25.5 -7.13,38.96 -3.72,13.34 -8.08,27.16 -13.11,41.15 -9.85,28.04 -21.49,57.25 -29.95,87.26 -4.23,14.99 -7.33,30.21 -8.84,45.32 -1.56,15.11 -0.38,30.09 3.37,43.87 3.51,13.94 11.1,25.97 19.94,35.72 2.32,2.38 4.58,4.75 6.82,7.06 2.44,2.11 5.06,3.95 7.52,5.9 4.76,4.09 10.07,7.1 15.16,9.99 2.55,1.44 4.98,2.97 7.48,4.25 2.57,1.14 5.08,2.23 7.53,3.31 4.95,2.03 9.45,4.51 14.06,5.84 9.14,2.83 16.93,5.99 23.68,7.41 l 21.05,5.14 c 0,0 -7.72,-1.57 -21.26,-4.3 -6.82,-1.17 -14.75,-4.01 -24.07,-6.52 -4.69,-1.15 -9.33,-3.47 -14.41,-5.32 -2.52,-1 -5.11,-2.01 -7.78,-3.07 -2.58,-1.19 -5.11,-2.65 -7.75,-4.03 -5.31,-2.72 -10.87,-5.59 -15.98,-9.61 -2.61,-1.91 -5.38,-3.72 -7.99,-5.81 -2.44,-2.32 -4.89,-4.68 -7.41,-7.08 -9.65,-9.8 -18.26,-22.35 -22.62,-37.04 -4.61,-14.5 -6.41,-30.44 -5.43,-46.27 0.98,-15.82 3.57,-31.72 7.3,-47.24 m -2122.83,-3269.67 c -28.1,-13.449 -38.37,-50.461 -22.95,-82.679 15.41,-32.219 50.69,-47.45 78.78,-34.012 28.08,13.43 38.36,50.453 22.95,82.68 -15.41,32.222 -50.69,47.441 -78.78,34.011 m 895.77,1569.89 c -1.51,9.77 -2.98,19.45 -4.31,27.94 -2.12,-0.88 0.86,-13.03 4.31,-27.94 m -2574.40501,-565.16 c -89.555,11.6 -202.332,-104.49 -225.551,-167.52 0,0 235.504,119.41 225.551,167.52 m 4228.87501,1864.93 c -6.13,-3.39 -11.04,-8.8 -14.83,-14.79 -1.53,-3.28 -3.26,-6.47 -3.89,-9.73 -0.41,-0.82 -0.64,-1.95 -0.84,-3.15 17.86,9.48 35.67,18.97 53.18,28.3 -4.18,2.02 -8.63,3.54 -13.96,3.68 -6.66,0.81 -13.49,-1.28 -19.66,-4.31 m 175.5,76.58 c 11.5,6.17 22.32,11.97 32.25,17.3 -6.37,0.51 -12.82,-1.45 -18.69,-4.32 -5.49,-3.04 -9.95,-7.73 -13.56,-12.98 m -390.16,-192.79 c -1.82,2.02 -4.35,3.55 -6.63,5.43 -5.36,2.91 -10.79,5.45 -17.77,5.64 -6.66,0.81 -13.49,-1.29 -19.65,-4.32 -6.14,-3.39 -11.05,-8.8 -14.83,-14.79 -1.53,-3.28 -3.27,-6.47 -3.91,-9.73 -1.29,-2.63 -1.13,-8.02 -1.58,-10.93 0.16,-5.6 1.29,-11.1 3.37,-16.22 19.19,9.56 42.34,21.34 68.17,34.69 -0.74,1.36 -1.47,2.68 -2.29,4.16 -1.28,2.09 -3.21,3.93 -4.88,6.07 M 881.53229,2330.2144 c 26.636,1 22.093,2.67 0,0 m 1760.29801,233.89 0.22,-0.23 -0.2,0.25 z m -71.16,-43.65 v -4.32 l 68.72,47.97 -6.49,5.79 c -36.32,-29.95 -62.23,-49.44 -62.23,-49.44 m -1093.03,451.11 c -213.51,92.04 -403.41,-70.91 -500.84301,-132.68 9.95,-3.32 442.82301,151.82 500.84301,132.68 m 967.02,922.72 c 20.04,-12.64 75.61,7.67 75.61,7.67 0,0 5.52,41.46 -4.43,53.07 -9.95,11.62 -53.08,-51.41 -71.18,-60.74 m -18.38,20.94 c -14.92,11.61 31.51,121.06 50.62,119.4 19.12,-1.65 38.94,-34.82 38.94,-34.82 -34.82,4.98 -86.25,-53.08 -89.56,-84.58" />
      </g>
    </g>
  </g>
</svg>
