<?xml version="1.0" encoding="UTF-8" standalone="no"?>
<!-- Created with Inkscape (http://www.inkscape.org/) -->

<svg
   xmlns:dc="http://purl.org/dc/elements/1.1/"
   xmlns:cc="http://creativecommons.org/ns#"
   xmlns:rdf="http://www.w3.org/1999/02/22-rdf-syntax-ns#"
   xmlns:svg="http://www.w3.org/2000/svg"
   xmlns="http://www.w3.org/2000/svg"
   xmlns:sodipodi="http://sodipodi.sourceforge.net/DTD/sodipodi-0.dtd"
   xmlns:inkscape="http://www.inkscape.org/namespaces/inkscape"
   width="24.957243mm"
   height="15.619942mm"
   viewBox="0 0 24.957243 15.619942"
   version="1.1"
   id="svg8"
   inkscape:version="0.92.2 (5c3e80d, 2017-08-06)"
   sodipodi:docname="down-arrow-dodger-blue.svg">
  <defs
     id="defs2">
    <clipPath
       id="clipPath4522"
       clipPathUnits="userSpaceOnUse">
      <path
         inkscape:connector-curvature="0"
         id="path4520"
         d="m 3941.74,774.59 h 1749.78 v 669.922 H 3941.74 Z" />
    </clipPath>
  </defs>
  <sodipodi:namedview
     id="base"
     pagecolor="#ffffff"
     bordercolor="#666666"
     borderopacity="1.0"
     inkscape:pageopacity="0.0"
     inkscape:pageshadow="2"
     inkscape:zoom="0.9983453"
     inkscape:cx="-7.5613019"
     inkscape:cy="-7.5619183"
     inkscape:document-units="mm"
     inkscape:current-layer="g4514"
     showgrid="false"
     inkscape:window-width="1920"
     inkscape:window-height="1000"
     inkscape:window-x="-11"
     inkscape:window-y="-11"
     inkscape:window-maximized="1" />
  <metadata
     id="metadata5">
    <rdf:RDF>
      <cc:Work
         rdf:about="">
        <dc:format>image/svg+xml</dc:format>
        <dc:type
           rdf:resource="http://purl.org/dc/dcmitype/StillImage" />
        <dc:title></dc:title>
      </cc:Work>
    </rdf:RDF>
  </metadata>
  <g
     inkscape:label="Layer 1"
     inkscape:groupmode="layer"
     id="layer1"
     transform="translate(-83.779608,-15.508383)">
    <g
       transform="matrix(0.35277777,0,0,-0.35277777,4.7608944,159.13268)"
       inkscape:label="ink_ext_XXXXXX"
       id="g4512">
      <g
         transform="scale(0.1)"
         id="g4514">
        <path
           inkscape:connector-curvature="0"
           id="path4532"
           style="fill:#1e90ff;fill-opacity:1;fill-rule:evenodd;stroke:none"
           d="m 2839.12,4032.77 c -49.16,-31.23 -107.85,-68.68 -162.25,-103.61 l 178.5,90.95 c 5.68,2.89 12.62,0.65 15.52,-5.03 0.97,-1.92 1.55,-3.48 1.67,-5.08 l 18.95,22.77 z m -106.1,0 -127.09,-91.42 c 91.64,47.41 146.11,75.19 179.05,91.42 z m -101.72,0 c -0.13,-0.06 -0.24,-0.11 -0.41,-0.18 -10.82,-10.13 -34.62,-28.43 -83.99,-66.4 -0.71,-0.55 -1.43,-1.1 -2.14,-1.66 64.62,33.65 106.07,54.83 133.18,68.24 z m -82.38,0 -51.55,-42.4 c 2.13,1.07 4.23,2.16 6.31,3.24 34.32,17.58 58.73,30.1 76.56,39.16 z m -71.23,0 c -4.69,-5.1 -12.15,-12.29 -23.74,-22.95 15.62,8.08 31.03,16.09 44.19,22.95 z m -80.16,0 c -2.1,-4.66 -5.03,-10.8 -9.35,-19.58 l 38.43,19.58 z m -57.1,0 c 0.31,-0.44 0.8,-1.13 1.09,-1.53 0.04,0.01 0.06,0.04 0.12,0.04 0.81,0.44 1.94,1.02 2.85,1.49 z m -40.22,0 295.63,-354.99 34.79,41.75 c -5.96,-2.9 -20.45,-10.41 -33.98,-17.53 -0.06,-0.03 -0.09,-0.06 -0.15,-0.09 -5.14,-2.6 -11.42,-1.04 -14.72,3.73 -3.32,4.8 -2.54,11.3 1.8,15.16 7.96,7.12 17.19,15.38 26.61,23.82 l -34.57,-17.61 c -5.68,-2.91 -12.64,-0.65 -15.53,5.03 -2.3,4.51 -3.52,6.92 5.35,14.96 l -0.31,0.57 2.3,1.18 c 5.26,4.52 13.34,10.64 25.41,19.43 -39.75,-20.23 -41.29,-19.73 -45.57,-18.36 -2.92,0.94 -5.39,3.04 -6.79,5.77 -2.61,5.12 -1.05,11.4 3.64,14.69 l 114.64,80.73 c -78.08,-39.8 -111.28,-56.52 -126.16,-63.26 -1.45,-0.97 -2.43,-1.61 -2.87,-1.96 l -0.39,0.53 c -7.81,-3.38 -8.87,-3.02 -10.4,-2.53 -2.9,0.95 -5.33,3.01 -6.72,5.73 -2.93,5.76 -4.11,8.1 5.82,15.67 l -0.09,0.18 c 0.2,0.09 0.51,0.24 0.95,0.46 6.98,5.17 18.93,12.74 38.55,25.19 24.77,15.68 58.35,36.83 94.02,59.29 l -148.74,-75.8 c -5.68,-2.88 -12.64,-0.63 -15.52,5.04 -2,3.91 -3.38,6.63 5.45,14.73 l -0.41,0.81 3.15,1.6 c 15.32,12.97 52.91,38.04 140.05,93.79 -54.55,-28.11 -111.78,-57.76 -160.12,-82.91 -0.02,-0.02 -0.05,-0.05 -0.08,-0.05 -5.35,-2.74 -11.91,-0.9 -15.06,4.23 -3.17,5.17 -1.83,11.9 3.09,15.41 l 144.2,103.74 c -53.32,-27.49 -114.54,-59.42 -163.78,-85.28 -2.68,-1.54 -5.92,-1.73 -8.88,-0.77 -2.93,0.93 -5.37,2.99 -6.78,5.73 -2.13,4.2 -3.32,6.55 5.21,14.94 l -0.28,0.53 c 0.59,0.32 1.2,0.64 1.81,0.96 11.35,10.72 36.82,30.38 90.72,71.84 -3.8,-1.96 -7.57,-3.9 -11.28,-5.78 -60.97,-31.31 -86.41,-44.34 -97.99,-49.44 l -0.66,-0.55 -0.15,0.18 c -7.57,-3.29 -8.75,-2.9 -10.75,-2.25 -4,1.3 -6.98,4.67 -7.79,8.83 -0.77,4.14 0.77,8.38 4.02,11.06 l 50.55,41.57 c -65.27,-33.7 -66.6,-33.26 -71.53,-31.69 -2.92,0.94 -5.4,3.03 -6.8,5.78 -2.37,4.66 -1.31,10.34 2.59,13.82 8.09,7.27 17.49,15.72 27.09,24.34 l -35.21,-17.94 c -4.44,-2.26 -9.83,-1.42 -13.36,2.1 -3.53,3.5 -4.43,8.86 -2.21,13.33 0,0 5.94,11.96 12.35,24.84 -24.99,-13.02 -25.61,-12.83 -30.16,-11.37 -2.95,0.93 -5.42,3.02 -6.81,5.78 -0.32,0.33 -10.23,14.16 -15.31,21.27 -0.02,0.01 -0.02,0.04 -0.05,0.04 z m 493.51,-86.84 c 0.01,0 0.01,0 0.01,0 5.4,2.76 12,0.87 15.14,-4.32 1.18,-1.97 1.53,-4.17 1.45,-6.33 l 21.96,26.36 29.53,35.47 c -9.91,-7.38 -27.88,-18.82 -60.14,-39.29 -19.25,-12.23 -41.46,-26.24 -64.72,-40.91 22.11,11.3 41.86,21.38 56.77,29.02 z m -60.84,-83.1 c 2.94,-0.93 5.38,-3 6.77,-5.76 0.92,-1.78 1.44,-3.29 1.48,-4.87 l 57.59,69.15 -110.26,-77.66 c 39.67,20.63 39.75,20.63 44.42,19.14 z m -41.55,-63.9 c 0.88,-1.75 1.44,-3.2 1.29,-4.96 l 30.21,36.27 6.43,7.71 c -8.51,-6.88 -22.33,-16.88 -45.17,-33.15 3.03,-0.82 5.7,-2.88 7.24,-5.87 z m -18.41,-28.62 c -9.53,-9 -23.34,-21.48 -43.12,-39.16 l 3.18,-8.81 23.26,27.95 z m -62.3,-134.9 c -3.65,-4.4 -9.07,-6.94 -14.78,-6.94 -5.71,0 -11.13,2.54 -14.79,6.94 l -336.69,404.28 c -4.78,5.74 -5.81,13.72 -2.64,20.49 3.17,6.76 9.95,11.06 17.42,11.06 h 673.43 l 14.78,-31.55 -336.73,-404.28" />
      </g>
    </g>
  </g>
</svg>
